<?xml version="1.0" standalone="no"?><!DOCTYPE svg PUBLIC "-//W3C//DTD SVG 1.1//EN" "http://www.w3.org/Graphics/SVG/1.1/DTD/svg11.dtd"><svg t="1575793367820" class="icon" viewBox="0 0 1024 1024" version="1.1" xmlns="http://www.w3.org/2000/svg" p-id="5041" xmlns:xlink="http://www.w3.org/1999/xlink" width="200" height="200"><defs><style type="text/css"></style></defs><path d="M207.327319 307.047489C207.327319 143.490723 340.36017 10.893617 504.461617 10.893617s297.134298 132.597106 297.134298 296.153872-133.032851 296.132085-297.134298 296.132085S207.327319 470.604255 207.327319 307.047489zM577.361702 138.87183c-20.697872-18.018043-49.435234-27.190468-85.275234-27.190468-36.23217 0-66.102468 10.436085-88.891915 30.981447-23.094468 20.87217-34.816 44.968851-34.816 71.636425 0 17.211915 9.063489 25.229617 28.475915 25.229617 18.410213 0 27.473702-8.409872 28.497702-26.427915 0.762553-14.161702 7.168-26.427915 18.780596-36.406468 11.677957-10.00034 27.212255-15.054979 46.297872-15.054979 19.042043 0 34.205957 4.553532 45.099575 13.464511 11.046128 9.041702 16.645447 21.678298 16.645447 37.691915 0 6.623319-0.522894 12.440511-1.459745 17.255489a40.437106 40.437106 0 0 1-6.797617 15.120341c-3.355234 4.793191-7.995915 9.978553-13.769532 15.36-5.577532 5.185362-13.006979 11.830468-22.070468 19.717446-19.107404 16.885106-33.617702 34.097021-43.138724 50.916766-9.390298 16.689021-14.205277 33.55234-14.205276 50.197788 0 5.882553 0.370383 10.937191 1.089362 14.924255 0.610043 3.529532 1.873702 6.318298 3.790978 8.279149a16.384 16.384 0 0 0 8.235575 4.183149c4.204936 0.936851 10.022128 1.394383 17.582298 1.394383 17.887319 0 26.210043-9.172426 26.210042-28.780936 0-6.645106 0.501106-12.636596 1.459745-17.952681 1.002213-5.51217 3.224511-11.133277 6.645106-16.77617 3.377021-5.490383 8.322723-11.677957 14.924256-18.519149 6.405447-6.623319 15.207489-14.924255 26.14468-24.401702 17.625872-15.621447 30.807149-30.48034 39.260596-44.140937 8.235574-13.464511 12.418723-28.127319 12.418724-43.683404-0.043574-33.116596-10.523234-58.99983-31.155745-77.017872z m-70.111319 310.03234a39.434894 39.434894 0 0 0-11.547234-8.039489c-4.357447-1.960851-9.063489-2.963064-14.161702-2.963064-5.054638 0-9.760681 0.936851-14.139915 2.963064-4.357447 1.960851-8.170213 4.684255-11.547234 8.039489-3.355234 3.333447-6.013277 7.189787-7.974128 11.634383-1.960851 4.357447-2.919489 9.041702-2.919489 14.161702 0 5.054638 0.936851 9.804255 2.919489 14.161702a39.434894 39.434894 0 0 0 19.543149 19.673873c4.357447 1.960851 9.063489 2.963064 14.139915 2.963064 5.076426 0 9.760681-0.958638 14.161702-2.984851 4.357447-2.004426 8.170213-4.662468 11.547234-8.017703 3.333447-3.355234 6.013277-7.211574 7.974128-11.634383 1.960851-4.357447 2.919489-9.041702 2.919489-14.161702 0-5.054638-0.958638-9.804255-2.919489-14.161702-1.960851-4.357447-4.640681-8.235574-7.995915-11.634383z m284.27983 152.619575c94.011915 76.952511 161.16017 175.670468 184.668596 311.187064 8.388085 55.230638-31.896511 100.395574-87.301447 100.395574H121.725277c-57.082553 0-95.689532-45.164936-87.301447-100.395574 21.830809-135.516596 88.979064-234.212766 179.613957-311.187064 23.530213-20.08783 57.082553-16.732596 78.913362 5.011064 53.705532 53.531234 127.586043 86.996426 209.832851 86.996425 82.268596 0 156.127319-33.465191 209.854638-86.996425a59.392 59.392 0 0 1 78.891575-5.011064z" fill="#D0D0D0" p-id="5042"></path></svg>